<?xml version="1.0" encoding="iso-8859-1"?>
<!-- Uploaded to: SVG Repo, www.svgrepo.com, Generator: SVG Repo Mixer Tools -->
<!DOCTYPE svg PUBLIC "-//W3C//DTD SVG 1.1//EN" "http://www.w3.org/Graphics/SVG/1.1/DTD/svg11.dtd">
<svg fill="#000000" version="1.1" id="Capa_1" xmlns="http://www.w3.org/2000/svg" xmlns:xlink="http://www.w3.org/1999/xlink" 
	 width="800px" height="800px" viewBox="0 0 49.864 49.865"
	 xml:space="preserve">
<g>
	<g id="Layer_1_copy_14_">
		<path d="M39.115,25.145c0.021,1.926,0.008,3.85,0.008,5.772c0,0.451-0.053,0.502-0.514,0.502c-0.533,0.003-1.068,0.003-1.602,0
			c-0.417,0-0.464-0.045-0.464-0.452c0-1.868,0.006-3.735-0.006-5.604c0-0.312-0.043-0.625-0.1-0.933
			c-0.081-0.445-0.383-0.698-0.814-0.769c-0.783-0.13-1.487,0.118-2.143,0.522c-0.087,0.054-0.121,0.249-0.121,0.379
			c-0.009,1.572-0.006,3.144-0.006,4.716c0,0.592-0.007,1.182,0.003,1.772c0.005,0.271-0.114,0.375-0.378,0.372
			c-0.591-0.011-1.182-0.003-1.773-0.005c-0.342-0.002-0.436-0.098-0.436-0.447c-0.001-2.973-0.001-5.945,0-8.918
			c0-0.313,0.094-0.411,0.408-0.413c0.533-0.005,1.065-0.004,1.602-0.001c0.338,0.002,0.396,0.065,0.404,0.401
			c0.002,0.129,0.014,0.256,0.022,0.461c0.175-0.111,0.277-0.173,0.379-0.241c1.041-0.706,2.197-0.878,3.41-0.663
			c1.111,0.194,1.716,0.937,1.941,1.992C39.048,24.099,39.109,24.625,39.115,25.145z M49.704,20.967L49.581,21.3
			c-0.029,0.087-0.055,0.162-0.072,0.232h-0.001c-0.021-0.072-0.042-0.148-0.07-0.232l-0.117-0.333h-0.113l-0.047,0.688h0.084
			l0.02-0.296c0.006-0.104,0.011-0.219,0.013-0.304h0.002c0.021,0.081,0.047,0.17,0.079,0.267l0.112,0.329h0.067l0.121-0.335
			c0.035-0.095,0.062-0.181,0.086-0.261h0.002c0,0.084,0.006,0.202,0.013,0.297l0.016,0.303h0.09l-0.043-0.688H49.704z
			 M22.763,24.495c0.057,2.178,0.046,4.36,0.059,6.541c0.001,0.291-0.105,0.386-0.404,0.388c-0.515,0.002-1.029,0.001-1.543,0
			c-0.436,0-0.49-0.054-0.512-0.484c-0.002-0.047-0.011-0.093-0.023-0.184c-0.293,0.163-0.542,0.319-0.804,0.446
			c-0.915,0.443-1.868,0.484-2.83,0.201c-0.866-0.258-1.396-0.854-1.608-1.729c-0.153-0.632-0.166-1.267-0.039-1.896
			c0.198-0.974,0.855-1.515,1.769-1.789c0.885-0.268,1.796-0.298,2.71-0.289c0.654,0.008,0.655,0.002,0.653-0.661
			c0-0.171,0.012-0.347-0.019-0.513c-0.098-0.534-0.456-0.867-1.046-0.867c-0.988,0-1.977,0.042-2.964,0.098
			c-0.484,0.029-0.548,0.005-0.548-0.484c0-0.343,0.006-0.687-0.002-1.028c-0.004-0.191,0.071-0.322,0.253-0.36
			c1.533-0.327,3.074-0.553,4.629-0.167C21.896,22.063,22.725,23.038,22.763,24.495z M20.252,28.917
			c-0.023-0.227-0.005-0.457-0.005-0.687c0-0.295,0.011-0.591-0.008-0.885c-0.005-0.074-0.106-0.203-0.159-0.201
			c-0.596,0.021-1.195,0.037-1.787,0.11c-0.363,0.046-0.629,0.311-0.702,0.673c-0.068,0.339-0.088,0.697-0.06,1.044
			c0.032,0.38,0.306,0.602,0.68,0.666c0.601,0.104,1.167-0.013,1.727-0.23C20.179,29.315,20.282,29.181,20.252,28.917z
			 M48.216,25.034c0.005,1.982,0.003,3.965,0.002,5.947c0,0.393-0.049,0.438-0.448,0.438c-0.496,0.003-0.99,0.003-1.486,0
			c-0.426,0-0.453-0.025-0.475-0.44c-0.002-0.049-0.007-0.096-0.017-0.144c-0.002-0.018-0.02-0.029-0.049-0.073
			c-0.062,0.028-0.119,0.046-0.164,0.078c-0.664,0.495-1.428,0.688-2.239,0.751c-1.605,0.13-2.832-0.926-2.908-2.534
			c-0.019-0.396-0.029-0.8,0.03-1.189c0.146-0.938,0.724-1.561,1.615-1.812c0.672-0.188,1.377-0.268,2.072-0.35
			c0.404-0.049,0.819-0.014,1.229-0.008c0.18,0.006,0.269-0.056,0.259-0.244c-0.015-0.283,0.011-0.574-0.037-0.854
			c-0.107-0.625-0.461-0.95-1.093-0.948c-0.979,0.006-1.958,0.05-2.938,0.105c-0.492,0.026-0.562-0.013-0.562-0.519
			c0-0.314,0.001-0.629,0-0.943c-0.001-0.244,0.104-0.38,0.354-0.438c1.139-0.257,2.289-0.396,3.453-0.323
			c0.487,0.031,0.982,0.138,1.446,0.293c1.107,0.369,1.718,1.183,1.896,2.323C48.201,24.444,48.215,24.741,48.216,25.034z
			 M45.697,29.008c-0.012-0.259-0.002-0.515-0.004-0.771c0-0.274-0.005-0.552,0.004-0.828c0.004-0.188-0.061-0.283-0.264-0.274
			c-0.361,0.008-0.726-0.021-1.085,0.007c-1.203,0.091-1.421,0.538-1.436,1.527c-0.008,0.582,0.263,0.896,0.726,0.975
			c0.643,0.105,1.244-0.028,1.829-0.287C45.626,29.286,45.704,29.19,45.697,29.008z M13.201,18.264c-0.553,0-1.105,0-1.658,0
			c-0.415,0.001-0.454,0.042-0.454,0.462c0,2.029,0,4.059,0,6.088c0,2.067,0,4.134,0,6.203c0,0.343,0.059,0.4,0.397,0.402
			c0.542,0.003,1.085,0,1.629,0c0.511,0,0.558-0.045,0.558-0.549c0-3.478,0-6.956,0-10.433c0-0.572,0.001-1.143,0-1.715
			C13.672,18.333,13.6,18.265,13.201,18.264z M48.592,21.042h0.21v0.613h0.09v-0.613h0.21v-0.075h-0.51V21.042z M29.326,21.522
			c-0.744,0.032-1.416,0.266-2.018,0.701c-0.082,0.06-0.164,0.115-0.287,0.203c-0.01-0.137-0.021-0.218-0.021-0.3
			c-0.008-0.41-0.08-0.486-0.481-0.486c-0.517-0.002-1.029-0.001-1.544-0.001c-0.471,0.001-0.549,0.077-0.549,0.546
			c0,1.314,0,2.63,0,3.944c0,1.594-0.001,3.185,0,4.774c0,0.422,0.093,0.516,0.494,0.516c0.542,0.003,1.087,0.003,1.63,0
			c0.438,0,0.508-0.066,0.508-0.518c0.001-2.113,0.003-4.229-0.004-6.347c0-0.209,0.061-0.328,0.253-0.419
			c0.636-0.299,1.288-0.523,2.003-0.494c0.262,0.011,0.389-0.088,0.383-0.365c-0.011-0.468-0.009-0.933-0.001-1.4
			C29.693,21.621,29.579,21.512,29.326,21.522z M2.339,18.265c-0.505-0.003-1.01-0.005-1.516,0.001C0.293,18.274,0,18.576,0,19.108
			c0,1.963,0,3.927,0,5.89C0,26.991,0,28.981,0,30.974c0,0.349,0.047,0.396,0.397,0.396c0.514,0.004,1.029,0.004,1.543,0
			c0.54-0.004,0.811-0.273,0.811-0.81c0-3.955,0-7.912,0-11.866C2.752,18.347,2.679,18.268,2.339,18.265z M8.019,27.235
			c-1.104-1.154-2.462-1.789-3.943-1.936c-0.478-0.009-0.482-0.009-0.469,0.352c0.005,0.133,0.031,0.264,0.051,0.396
			c0.265,1.755,1.123,3.153,2.551,4.198c0.936,0.688,1.995,1.045,3.148,1.153c0.343,0.033,0.401,0.009,0.367-0.327
			C9.577,29.607,9.044,28.308,8.019,27.235z M9.365,18.297c-0.131,0.021-0.267,0.013-0.397,0.033
			c-1.502,0.239-2.777,0.904-3.791,2.043c-0.929,1.042-1.445,2.271-1.567,3.659c-0.031,0.362-0.011,0.363,0.37,0.412
			c0.523-0.129,1.067-0.208,1.567-0.398c2.497-0.948,3.863-2.788,4.178-5.428C9.765,18.283,9.709,18.245,9.365,18.297z"/>
	</g>
</g>
</svg>